<?xml version="1.0" standalone="no"?>
<!DOCTYPE svg PUBLIC "-//W3C//DTD SVG 20010904//EN"
 "http://www.w3.org/TR/2001/REC-SVG-20010904/DTD/svg10.dtd">
<svg version="1.0" xmlns="http://www.w3.org/2000/svg"
 width="140.000000pt" height="140.000000pt" viewBox="0 0 140.000000 140.000000"
 preserveAspectRatio="xMidYMid meet">
<metadata>
Created by potrace 1.14, written by Peter Selinger 2001-2017
</metadata>
<g transform="translate(0.000000,140.000000) scale(0.100000,-0.100000)"
fill="#000000" stroke="none">
<path d="M405 1273 c-39 -9 -55 -34 -55 -84 0 -26 5 -51 10 -54 6 -3 10 -40
10 -82 0 -96 43 -241 112 -373 67 -129 98 -207 98 -246 0 -27 -11 -43 -65 -95
-52 -50 -74 -83 -116 -168 -29 -58 -57 -117 -63 -131 -5 -14 -12 -28 -14 -32
-2 -5 14 -8 36 -8 31 0 41 5 52 24 10 20 17 23 34 16 75 -30 250 -45 349 -29
106 17 158 18 164 3 3 -8 9 -14 15 -14 5 0 6 5 3 10 -3 6 -1 10 4 10 6 0 11
-4 11 -10 0 -5 5 -10 11 -10 11 0 6 24 -16 75 -7 17 -19 47 -25 68 -7 22 -18
51 -26 65 -8 15 -14 32 -14 39 0 12 -57 74 -97 105 -35 27 -39 61 -11 89 17
17 30 50 43 110 15 66 24 88 39 95 16 7 22 20 24 56 2 25 10 52 18 58 16 14
19 70 4 70 -5 0 -10 5 -10 10 0 6 17 10 38 10 28 0 45 7 62 25 13 14 20 28 17
32 -4 3 -2 12 4 20 9 10 7 13 -6 13 -13 0 -15 3 -7 13 12 15 13 67 0 67 -5 0
-4 8 1 19 9 16 6 19 -23 24 -18 3 -50 17 -71 31 -21 14 -44 26 -52 26 -7 0
-39 17 -71 38 -72 48 -140 71 -217 73 -33 1 -76 10 -95 19 -43 21 -79 29 -105
23z m325 -109 c33 -6 28 -9 -115 -81 -83 -41 -160 -81 -173 -89 -22 -15 -23
-14 -20 7 3 22 22 36 77 56 l25 10 -32 14 c-18 8 -32 17 -32 20 0 4 15 18 34
33 55 42 111 49 236 30z m10 -294 l25 0 -32 -31 -31 -32 -22 21 c-13 12 -36
24 -51 27 -26 6 -29 11 -29 45 l0 39 58 -34 c31 -19 68 -35 82 -35z m-160 -15
c0 -1 -7 -8 -15 -15 -13 -10 -15 -9 -15 8 0 15 5 20 15 16 8 -4 15 -7 15 -9z
m254 -31 c19 -19 21 -68 4 -81 -27 -21 -59 -22 -79 -2 -37 37 -15 99 36 99 13
0 31 -7 39 -16z m-302 -26 c-9 -9 -12 -7 -12 12 0 19 3 21 12 12 9 -9 9 -15 0
-24z m116 16 c41 -28 18 -104 -31 -104 -49 0 -75 64 -40 102 20 22 42 23 71 2z
m117 -114 c29 -11 73 2 93 27 17 23 16 7 -8 -99 -40 -182 -44 -188 -135 -188
-85 0 -91 6 -125 125 -5 17 -18 59 -29 93 -17 57 -18 62 -3 50 47 -41 114 -27
133 27 l13 34 18 -30 c10 -16 29 -34 43 -39z m142 48 c-3 -8 -6 -5 -6 6 -1 11
2 17 5 13 3 -3 4 -12 1 -19z m-10 -50 c-3 -7 -5 -2 -5 12 0 14 2 19 5 13 2 -7
2 -19 0 -25z m-357 -43 c0 -5 -5 -3 -10 5 -5 8 -10 20 -10 25 0 6 5 3 10 -5 5
-8 10 -19 10 -25z m193 -256 c29 -8 37 -15 37 -34 0 -26 -20 -33 -77 -26 -30
3 -33 6 -33 37 0 38 9 41 73 23z m17 -144 c144 0 144 0 157 -25 7 -14 13 -37
13 -52 0 -26 -1 -26 -87 -33 -85 -8 -280 -1 -334 11 -24 5 -26 8 -15 28 6 12
22 36 35 54 21 30 26 32 55 25 17 -4 96 -8 176 -8z"/>
<path d="M780 785 c0 -8 7 -15 15 -15 8 0 15 7 15 15 0 8 -7 15 -15 15 -8 0
-15 -7 -15 -15z"/>
<path d="M605 780 c-4 -6 -3 -16 3 -22 6 -6 12 -6 17 2 4 6 3 16 -3 22 -6 6
-12 6 -17 -2z"/>
<path d="M698 683 c-43 -5 -50 -20 -14 -29 25 -6 66 10 66 26 0 6 -3 9 -7 8
-5 -1 -25 -3 -45 -5z"/>
<path d="M800 667 c0 -35 -120 -50 -172 -23 -25 13 -29 13 -38 -4 -9 -16 -4
-19 43 -26 65 -10 114 -6 151 12 16 8 35 14 43 14 11 0 11 4 1 20 -15 23 -28
26 -28 7z"/>
<path d="M675 520 c3 -5 17 -10 30 -10 13 0 27 5 30 10 4 6 -8 10 -30 10 -22
0 -34 -4 -30 -10z"/>
</g>
</svg>
